<svg xmlns="http://www.w3.org/2000/svg" width="285" height="40" viewBox="0 0 285 40" fill="none" id="Logo"> <g id="logomark"> <path d="M35.2354 0C45.7288 3.12768e-07 54.2354 8.50659 54.2354 19V40C49.8171 40 46.2354 36.4183 46.2354 32V19C46.2354 12.9249 41.3105 8 35.2354 8H30.0342C27.3821 8.00004 24.8382 9.05339 22.9629 10.9287L9.40723 24.4854C8.65714 25.2354 8.23541 26.2527 8.23535 27.3135V28C8.23535 30.2091 10.0262 32 12.2354 32H30.2354C30.2354 36.2801 26.8742 39.7748 22.6475 39.9893L22.2354 40H12.2354C5.60794 40 0.235352 34.6274 0.235352 28V27.3135C0.235414 24.131 1.49962 21.0785 3.75 18.8281L17.3066 5.27246C20.6823 1.89685 25.2603 4.37597e-05 30.0342 0H35.2354Z" fill="#FF500B"></path> <path d="M37.2354 12C39.9968 12 42.2354 14.2386 42.2354 17V40C37.8171 40 34.2354 36.4183 34.2354 32V20H30.8916L24.3561 26.5355C23.4184 27.4732 22.1466 28 20.8205 28H12.7129C12.2941 28 12.0844 27.4937 12.3805 27.1976L26.1143 13.4648C27.0519 12.5272 28.3234 12 29.6494 12H37.2354Z" fill="#FF500B"></path> </g> <g id="logotype"> <path d="M274.819 30.0475V17.1592C274.819 16.7878 274.485 16.4535 274.114 16.4535H273.631C273.334 16.4535 273.074 16.6392 272.962 16.8992L268.468 27.5218C267.837 29.0818 266.314 30.0475 264.642 30.0475C262.971 30.0475 261.485 29.0818 260.854 27.5218L256.323 16.8992C256.248 16.6392 255.988 16.4535 255.691 16.4535H255.208C254.837 16.4535 254.503 16.7878 254.503 17.1592V30.0475H250.306V17.1592C250.306 14.4478 252.497 12.2193 255.208 12.2193H255.691C257.66 12.2193 259.442 13.4078 260.222 15.2649L264.642 25.739L269.062 15.2649C269.842 13.4078 271.625 12.2193 273.631 12.2193H274.114C276.825 12.2193 279.016 14.4478 279.016 17.1592V30.0475H274.819Z" fill="#A62F00"></path> <path d="M231.15 30.0475C226.878 30.0475 223.424 26.5932 223.424 22.3219V12.2193H227.621V22.3219C227.621 24.2533 229.218 25.8504 231.15 25.8504H240.064C241.995 25.8504 243.592 24.2533 243.592 22.3219V12.2193H247.789V22.3219C247.789 26.5932 244.335 30.0475 240.064 30.0475H231.15Z" fill="#A62F00"></path> <path d="M215.692 25.8504C216.397 25.8504 216.992 25.2561 216.992 24.5504C216.992 23.8447 216.434 23.2876 215.766 23.2505H205.849C202.803 23.2505 200.352 20.7991 200.352 17.7534C200.352 14.7078 202.803 12.2193 205.849 12.2193H221.226V16.4535H205.849C205.143 16.4535 204.549 17.0478 204.549 17.7534C204.549 18.4591 205.143 19.0534 205.849 19.0534H215.84C218.811 19.1277 221.226 21.5419 221.226 24.5504C221.226 27.5961 218.737 30.0475 215.692 30.0475H200.352V25.8504H215.692Z" fill="#A62F00"></path> <path d="M176.783 30.0475V17.1592C176.783 14.4478 178.975 12.2193 181.686 12.2193H192.494C195.986 12.2193 198.808 15.0792 198.808 18.5706C198.808 22.0619 195.986 24.9219 192.494 24.9219H180.98V30.0475H176.783ZM180.98 17.1592V20.6877H192.494C193.646 20.6877 194.611 19.722 194.611 18.5706C194.611 17.4192 193.646 16.4535 192.494 16.4535H181.686C181.315 16.4535 180.98 16.7878 180.98 17.1592Z" fill="#A62F00"></path> <path d="M169.714 12.2193H173.911V30.0475H169.714V12.2193Z" fill="#A62F00"></path> <path d="M158.595 25.8504C161.195 25.8504 163.312 23.7333 163.312 21.1334C163.312 18.5706 161.195 16.4535 158.595 16.4535H152.058C149.458 16.4535 147.341 18.5706 147.341 21.1334C147.341 23.7333 149.458 25.8504 152.058 25.8504H158.595ZM158.595 12.2193C163.535 12.2193 167.509 16.2306 167.509 21.1334C167.509 26.0733 163.535 30.0475 158.595 30.0475H152.058C147.118 30.0475 143.144 26.0733 143.144 21.1334C143.144 16.2306 147.118 12.2193 152.058 12.2193H158.595Z" fill="#A62F00"></path> <path d="M126.813 30.0475C121.873 30.0475 117.899 26.0733 117.899 21.1334C117.899 16.2306 121.873 12.2193 126.813 12.2193H139.701V16.4535H126.813C124.213 16.4535 122.096 18.5706 122.096 21.1334C122.096 23.7333 124.213 25.8504 126.813 25.8504H136.284C136.99 25.8504 137.584 25.2561 137.584 24.5504C137.584 23.8447 136.99 23.2505 136.284 23.2505H126.107V19.0534H136.284C139.33 19.0534 141.818 21.5048 141.818 24.5504C141.818 27.5961 139.33 30.0475 136.284 30.0475H126.813Z" fill="#A62F00"></path> <path d="M107.597 25.8504C110.197 25.8504 112.314 23.7333 112.314 21.1334C112.314 18.5706 110.197 16.4535 107.597 16.4535H101.06C98.4604 16.4535 96.3433 18.5706 96.3433 21.1334C96.3433 23.7333 98.4604 25.8504 101.06 25.8504H107.597ZM107.597 12.2193C112.537 12.2193 116.511 16.2306 116.511 21.1334C116.511 26.0733 112.537 30.0475 107.597 30.0475H101.06C96.1204 30.0475 92.1462 26.0733 92.1462 21.1334C92.1462 16.2306 96.1204 12.2193 101.06 12.2193H107.597Z" fill="#A62F00"></path> <path d="M74.9588 25.1447C74.9588 25.5161 75.293 25.8504 75.6645 25.8504H91.3755V30.0474H75.6645C72.9531 30.0474 70.7617 27.8561 70.7617 25.1447V12.1078H74.9588V25.1447Z" fill="#A62F00"></path> <path d="M284.127 12.1078C284.127 13.2981 283.162 14.263 281.972 14.263C280.781 14.263 279.817 13.2981 279.817 12.1078C279.817 10.9176 280.781 9.95264 281.972 9.95264C283.162 9.95264 284.127 10.9176 284.127 12.1078Z" fill="#A62F00"></path> </g> </svg>
